<svg xmlns="http://www.w3.org/2000/svg" width="80" height="80" viewBox="0 0 80 80">
    <g fill="none" fill-rule="evenodd">
        <rect width="80" height="80" fill="#FC0" fill-rule="nonzero" rx="10"/>
        <g fill="#000">
            <path d="M43 23c-3.44 0-6 3.624-6 7v9c0 3.377 3.56 6 7 6h1c3.44 0 6-2.623 6-6v-9c0-3.376-2.56-7-6-7h-2zm0 24c-4.312 0-8-3.78-8-8V29c0-4.219 3.688-8 8-8h2c4.314 0 8 3.781 8 8v10c0 4.22-3.686 8-8 8h-2z"/>
            <path d="M62 57v-2c-.121-1.427-5.32-3.73-12-5.158-.613-.132-2.096-1.635-2.096-2.233V45.28c0-.708-.4-1.281.34-1.281.742 0 1.342.573 1.756 1v3c5.462.91 14.115 3.423 13.999 6.716L64 58c-.001.427-.601 1-1 1H26c-.399 0-.999-.573-1-1l.001-3.284C24.885 51.423 33.538 48.91 39 48v-3c.414-.427 1.014-1 1.755-1 .741 0 .341.573.341 1.28v2.329c0 .598-1.483 2.1-2.096 2.233-6.68 1.429-11.879 3.731-12 5.158v2h35zM33 46c-4.022 0-7-3.066-7-7v-7c0-3.936 2.978-7 7-7v2c-2.791.297-4.769 2.331-5 5v7c.231 2.667 2.209 4.703 5 5h1c.499-.297 1 .217 1 1 0 .486-.501 1-1 1h-1z"/>
            <path d="M18 58v-4c-.09-2.668 6.095-6.708 12-8v-2c-.326-.489.194-1 1-1 .477 0 1 .511 1 1v2c0 .448-1.378 1.91-2 2-5.236 1.197-9.27 5.08-10 6v4c.329.489-.194 1-1 1-.476 0-.999-.511-1-1z"/>
        </g>
    </g>
</svg>
